<svg width="272" height="67" viewBox="0 0 272 67" fill="none" xmlns="http://www.w3.org/2000/svg">
<path d="M49.3007 14.7907V20.6441C45.9424 18.6381 42.5937 16.6223 39.2354 14.6163C31.0186 19.5394 22.8018 24.4624 14.585 29.3855V49.4267H0V14.7907L24.6503 0.0214844L49.3007 14.7907Z" fill="#0B2038"/>
<path d="M49.3007 20.6441V49.4267H14.585V29.3855C22.8018 24.4624 31.0186 19.5394 39.2354 14.6163C42.5937 16.6223 45.9424 18.6381 49.3007 20.6441Z" fill="white"/>
<path d="M63.8857 29.3855V64.0215H14.585V49.4267H49.3007V20.6441C54.1591 23.5612 59.0273 26.4685 63.8857 29.3855Z" fill="#64748B"/>
<path d="M11.7009 52.334H0.0290346V64.0215H11.7009V52.334Z" fill="#10B981"/>
<path d="M86.247 42.9479L89.7311 19.8288H96.8388V52.3909H92.0075V29.0392L88.4769 52.3909H83.6455L79.8362 29.3648V52.3909H75.3765V19.8288H82.4841L86.247 42.9479Z" fill="#64748B"/>
<path d="M100.835 27.6437C100.835 22.4338 103.576 19.4567 108.593 19.4567C113.61 19.4567 116.351 22.4338 116.351 27.6437V44.576C116.351 49.7859 113.61 52.763 108.593 52.763C103.576 52.763 100.835 49.7859 100.835 44.576V27.6437ZM105.945 44.9016C105.945 47.2275 106.967 48.1113 108.593 48.1113C110.219 48.1113 111.241 47.2275 111.241 44.9016V27.3181C111.241 24.9922 110.219 24.1084 108.593 24.1084C106.967 24.1084 105.945 24.9922 105.945 27.3181V44.9016Z" fill="#64748B"/>
<path d="M131.053 52.3909C130.774 51.5536 130.589 51.0419 130.589 48.3904V43.2735C130.589 40.2499 129.567 39.1335 127.244 39.1335H125.479V52.3909H120.368V19.8288H128.08C133.376 19.8288 135.652 22.2942 135.652 27.3181V29.8765C135.652 33.2258 134.584 35.4121 132.307 36.482C134.862 37.5519 135.699 40.0173 135.699 43.4131V48.4369C135.699 50.0185 135.745 51.1814 136.256 52.3909H131.053ZM125.479 24.4805V34.4817H127.476C129.381 34.4817 130.542 33.6444 130.542 31.0395V27.8298C130.542 25.5039 129.752 24.4805 127.941 24.4805H125.479Z" fill="#64748B"/>
<path d="M138.27 19.8288H154.064V24.4805H148.722V52.3909H143.612V24.4805H138.27V19.8288Z" fill="#64748B"/>
<path d="M164.677 34.2492H171.831V44.576C171.831 49.7859 169.23 52.763 164.212 52.763C159.195 52.763 156.594 49.7859 156.594 44.576V27.6437C156.594 22.4338 159.195 19.4567 164.212 19.4567C169.23 19.4567 171.831 22.4338 171.831 27.6437V30.8069H167V27.3181C167 24.9922 165.978 24.1084 164.352 24.1084C162.726 24.1084 161.704 24.9922 161.704 27.3181V44.9016C161.704 47.2275 162.726 48.0648 164.352 48.0648C165.978 48.0648 167 47.2275 167 44.9016V38.9009H164.677V34.2492Z" fill="#64748B"/>
<path d="M192.348 52.3909H187.191L186.309 46.4832H180.037L179.155 52.3909H174.463L179.666 19.8288H187.145L192.348 52.3909ZM180.688 42.0641H185.612L183.15 25.597L180.688 42.0641Z" fill="#64748B"/>
<path d="M203.09 34.2492H210.244V44.576C210.244 49.7859 207.642 52.763 202.625 52.763C197.608 52.763 195.007 49.7859 195.007 44.576V27.6437C195.007 22.4338 197.608 19.4567 202.625 19.4567C207.642 19.4567 210.244 22.4338 210.244 27.6437V30.8069H205.412V27.3181C205.412 24.9922 204.39 24.1084 202.765 24.1084C201.139 24.1084 200.117 24.9922 200.117 27.3181V44.9016C200.117 47.2275 201.139 48.0648 202.765 48.0648C204.39 48.0648 205.412 47.2275 205.412 44.9016V38.9009H203.09V34.2492Z" fill="#64748B"/>
<path d="M219.333 33.5514H226.348V38.2031H219.333V47.7392H228.159V52.3909H214.223V19.8288H228.159V24.4805H219.333V33.5514Z" fill="#64748B"/>
<path d="M243.045 45.1807L241.419 52.3909H239.468L246.576 19.7823H249.688L256.935 52.3909H254.798L253.173 45.1807H243.045ZM243.37 43.32H252.847L248.062 22.2477L243.37 43.32Z" fill="#64748B"/>
<path d="M263 19.8288V52.3909H260.863V19.8288H263Z" fill="#64748B"/>
</svg>
